<svg width="180" height="39" viewBox="0 0 180 39" fill="none" xmlns="http://www.w3.org/2000/svg">
<path fill-rule="evenodd" clip-rule="evenodd" d="M0 0H39.4467V38.1333H0V0ZM4.93084 32.8735V5.25976H34.5159V32.8735H22.8051V26.2988H16.6416V32.8735H4.93084ZM107.818 29.2112C105.814 29.1641 104.207 28.4578 102.998 27.0924C101.789 25.7269 101.104 23.9 100.945 21.6118C100.857 20.4817 100.941 19.154 101.197 17.6284C101.453 16.0934 101.908 14.6809 102.561 13.3908C103.214 12.1007 104.031 11.0272 105.011 10.1702C106.653 8.72943 108.542 8.03258 110.678 8.07965C111.994 8.10792 113.141 8.43284 114.121 9.05435C115.11 9.66646 115.9 10.5516 116.491 11.7099C117.083 12.8681 117.427 14.1866 117.524 15.665C117.595 16.7103 117.533 17.9015 117.339 19.2387C117.154 20.5665 116.805 21.8377 116.293 23.0526C115.79 24.2579 115.136 25.322 114.333 26.2448C113.53 27.1677 112.58 27.9022 111.486 28.4484C110.4 28.9852 109.177 29.2394 107.818 29.2112ZM112.982 15.6226C112.894 13.2684 112.038 12.0442 110.413 11.95C109.16 11.8841 108.122 12.4161 107.301 13.5462C106.48 14.6668 105.937 16.3242 105.673 18.5183C105.505 19.8743 105.443 20.9243 105.487 21.6682C105.575 24.0601 106.441 25.2891 108.083 25.3549C109.16 25.4115 110.087 25.0018 110.864 24.1261C111.64 23.2409 112.201 21.9602 112.545 20.2839C112.89 18.5983 113.035 17.0446 112.982 15.6226ZM65.4686 28.9287H69.997L73.3475 8.36217H57.5762L54.2393 28.9287H58.7682L61.4956 12.1902H68.1831L65.4686 28.9287ZM96.1668 8.36217H91.5189L82.872 21.0609L84.951 8.36217H80.4091L77.0586 28.9287H81.7201L90.3669 16.2441L88.2879 28.9287H92.8299L96.1668 8.36217ZM133.106 28.9287H137.609L140.959 8.36217H136.443L135.119 16.5266H128.498L129.836 8.36217H125.294L121.956 28.9287H126.485L127.889 20.3405H134.497L133.106 28.9287ZM157.415 20.2133H150.33L149.523 25.1148H157.905L157.283 28.9287H144.372L147.709 8.36217H160.646L160.024 12.1902H151.628L150.913 16.5266H158.011L157.415 20.2133ZM167.555 28.9287L168.693 21.9508L171.872 21.9649C173.346 21.9649 174.674 21.6965 175.857 21.1598C177.049 20.623 178.007 19.8461 178.731 18.8291C179.455 17.8121 179.87 16.6114 179.976 15.2271C180.125 13.2025 179.583 11.5545 178.347 10.2832C177.12 9.01195 175.434 8.3763 173.288 8.3763L166.363 8.36217L163.026 28.9287H167.555ZM172.044 18.151L169.316 18.1228L170.282 12.1902L173.447 12.2043C174.004 12.242 174.449 12.4303 174.785 12.7693C175.129 13.0989 175.336 13.5509 175.407 14.1254C175.531 15.2459 175.288 16.1923 174.679 16.9645C174.07 17.7273 173.191 18.1228 172.044 18.151Z" fill="white"/>
</svg>
