<svg width="180" height="32" viewBox="0 0 180 32" fill="none" xmlns="http://www.w3.org/2000/svg">
<path fill-rule="evenodd" clip-rule="evenodd" d="M0 0H39.4467V31.4862H0V0ZM4.93084 27.1433V4.34292H34.5159V27.1433H22.8051V21.7146H16.6416V27.1433H4.93084ZM107.818 24.1193C105.814 24.0805 104.207 23.4973 102.998 22.3698C101.789 21.2424 101.104 19.734 100.945 17.8446C100.857 16.9115 100.941 15.8152 101.197 14.5556C101.453 13.2881 101.908 12.1219 102.561 11.0566C103.214 9.99138 104.031 9.10499 105.011 8.39742C106.653 7.20779 108.542 6.6324 110.678 6.67127C111.994 6.69461 113.141 6.9629 114.121 7.47607C115.11 7.98148 115.9 8.71234 116.491 9.6687C117.083 10.6251 117.427 11.7137 117.524 12.9344C117.595 13.7975 117.533 14.781 117.339 15.8852C117.154 16.9815 116.805 18.0312 116.293 19.0342C115.79 20.0295 115.136 20.9081 114.333 21.67C113.53 22.4321 112.58 23.0386 111.486 23.4895C110.4 23.9327 109.177 24.1426 107.818 24.1193ZM112.982 12.8994C112.894 10.9556 112.038 9.94475 110.413 9.86701C109.16 9.81256 108.122 10.2518 107.301 11.1849C106.48 12.1102 105.937 13.4787 105.673 15.2903C105.505 16.41 105.443 17.277 105.487 17.8912C105.575 19.8662 106.441 20.8809 108.083 20.9353C109.16 20.982 110.087 20.6437 110.864 19.9206C111.64 19.1897 112.201 18.1322 112.545 16.7482C112.89 15.3564 113.035 14.0735 112.982 12.8994ZM65.4686 23.8861H69.997L73.3475 6.90454H57.5762L54.2393 23.8861H58.7682L61.4956 10.0653H68.1831L65.4686 23.8861ZM96.1668 6.90454H91.5189L82.872 17.3897L84.951 6.90454H80.4091L77.0586 23.8861H81.7201L90.3669 13.4126L88.2879 23.8861H92.8299L96.1668 6.90454ZM133.106 23.8861H137.609L140.959 6.90454H136.443L135.119 13.6458H128.498L129.836 6.90454H125.294L121.956 23.8861H126.485L127.889 16.7949H134.497L133.106 23.8861ZM157.415 16.6899H150.33L149.523 20.737H157.905L157.283 23.8861H144.372L147.709 6.90454H160.646L160.024 10.0653H151.628L150.913 13.6458H158.011L157.415 16.6899ZM167.555 23.8861L168.693 18.1245L171.872 18.1362C173.346 18.1362 174.674 17.9146 175.857 17.4714C177.049 17.0282 178.007 16.3867 178.731 15.547C179.455 14.7072 179.87 13.7158 179.976 12.5728C180.125 10.9011 179.583 9.54042 178.347 8.49074C177.12 7.44105 175.434 6.91621 173.288 6.91621L166.363 6.90454L163.026 23.8861H167.555ZM172.044 14.9871L169.316 14.9638L170.282 10.0653L173.447 10.0769C174.004 10.108 174.449 10.2635 174.785 10.5435C175.129 10.8156 175.336 11.1888 175.407 11.6631C175.531 12.5884 175.288 13.3698 174.679 14.0074C174.07 14.6372 173.191 14.9638 172.044 14.9871Z" fill="#607CE6"/>
</svg>
